<svg xmlns="http://www.w3.org/2000/svg" width="28" height="20" viewBox="0 0 28 20" fill="none">
  <path d="M3.48362 12.2235C5.70791 14.4347 9.58703 17.4999 14.0004 17.4999C18.4136 17.4999 22.292 14.4347 24.5164 12.2235C25.103 11.6404 25.3972 11.3477 25.584 10.7751C25.7174 10.3666 25.7174 9.63337 25.584 9.22487C25.3972 8.65225 25.103 8.35962 24.5164 7.77637C22.292 5.5651 18.4136 2.5 14.0004 2.5C9.58703 2.5 5.70791 5.5651 3.48362 7.77637C2.89654 8.36 2.60298 8.652 2.41612 9.22487C2.28284 9.63337 2.28284 10.3666 2.41612 10.7751C2.60298 11.348 2.89654 11.6399 3.48362 12.2235Z" stroke="#3F4440" stroke-width="4" stroke-linecap="round" stroke-linejoin="round"/>
  <path d="M11.5001 10C11.5001 11.3807 12.6194 12.5 14.0001 12.5C15.3809 12.5 16.5001 11.3807 16.5001 10C16.5001 8.61925 15.3809 7.5 14.0001 7.5C12.6194 7.5 11.5001 8.61925 11.5001 10Z" stroke="#3F4440" stroke-width="4" stroke-linecap="round" stroke-linejoin="round"/>
</svg>