<svg width="50" height="50" viewBox="0 0 50 50" fill="none" xmlns="http://www.w3.org/2000/svg">
<path d="M36.519 16.1875C36.3731 16.1667 36.2273 16.1667 36.0815 16.1875C32.8523 16.0833 30.2898 13.4375 30.2898 10.1875C30.2898 6.87499 32.9773 4.16666 36.3106 4.16666C39.6231 4.16666 42.3315 6.85416 42.3315 10.1875C42.3106 13.4375 39.7481 16.0833 36.519 16.1875Z" fill="#292D32"/>
<path d="M43.3158 30.6258C40.9825 32.1883 37.7117 32.7717 34.6908 32.3758C35.4825 30.6675 35.8992 28.7717 35.92 26.7717C35.92 24.6883 35.4617 22.7092 34.5867 20.98C37.67 20.5633 40.9408 21.1467 43.295 22.7092C46.5867 24.8758 46.5867 28.4383 43.3158 30.6258Z" fill="#292D32"/>
<path d="M13.417 16.1875C13.5628 16.1667 13.7087 16.1667 13.8545 16.1875C17.0837 16.0833 19.6462 13.4375 19.6462 10.1875C19.6462 6.85416 16.9587 4.16666 13.6253 4.16666C10.3128 4.16666 7.62534 6.85416 7.62534 10.1875C7.62534 13.4375 10.1878 16.0833 13.417 16.1875Z" fill="#292D32"/>
<path d="M13.6481 26.7721C13.6481 28.7929 14.0856 30.7096 14.8773 32.4387C11.9398 32.7512 8.87726 32.1262 6.62726 30.6471C3.33559 28.4596 3.33559 24.8971 6.62726 22.7096C8.85642 21.2096 12.0023 20.6054 14.9606 20.9387C14.1064 22.6887 13.6481 24.6679 13.6481 26.7721Z" fill="#292D32"/>
<path d="M25.2517 33.0625C25.085 33.0417 24.8975 33.0417 24.71 33.0625C20.8767 32.9375 17.8141 29.7917 17.8141 25.9167C17.835 21.9583 21.0225 18.75 25.0017 18.75C28.96 18.75 32.1683 21.9583 32.1683 25.9167C32.1475 29.7917 29.1058 32.9375 25.2517 33.0625Z" fill="#292D32"/>
<path d="M18.4808 37.3763C15.335 39.4804 15.335 42.9388 18.4808 45.0221C22.0642 47.4179 27.9392 47.4179 31.5225 45.0221C34.6683 42.9179 34.6683 39.4596 31.5225 37.3763C27.96 34.9804 22.085 34.9804 18.4808 37.3763Z" fill="#292D32"/>
</svg>
