<svg width="50" height="50" viewBox="0 0 50 50" fill="none" xmlns="http://www.w3.org/2000/svg">
<path d="M25 20.8333C29.6024 20.8333 33.3333 17.1024 33.3333 12.5C33.3333 7.89762 29.6024 4.16666 25 4.16666C20.3976 4.16666 16.6667 7.89762 16.6667 12.5C16.6667 17.1024 20.3976 20.8333 25 20.8333Z" stroke="#292D32" stroke-width="5"/>
<path d="M41.6615 37.5C41.6667 37.1579 41.6667 36.8104 41.6667 36.4583C41.6667 31.2806 34.2048 27.0833 25 27.0833C15.7953 27.0833 8.33334 31.2806 8.33334 36.4583C8.33334 41.6361 8.33334 45.8333 25 45.8333C29.6479 45.8333 32.9996 45.5069 35.4167 44.9238" stroke="#292D32" stroke-width="5" stroke-linecap="round"/>
</svg>
